<?xml version="1.0" standalone="no"?>
<!DOCTYPE svg PUBLIC "-//W3C//DTD SVG 20010904//EN"
 "http://www.w3.org/TR/2001/REC-SVG-20010904/DTD/svg10.dtd">
<svg version="1.0" xmlns="http://www.w3.org/2000/svg"
 width="2048.000000pt" height="2048.000000pt" viewBox="0 0 2048.000000 2048.000000"
 preserveAspectRatio="xMidYMid meet">
<metadata>
Created by potrace 1.14, written by Peter Selinger 2001-2017
</metadata>
<g transform="translate(0.000000,2048.000000) scale(0.100000,-0.100000)"
fill="#000000" stroke="none">
<path d="M15025 20084 c-53 -14 -105 -38 -105 -49 0 -7 -15 -16 -33 -19 -45
-8 -171 -70 -229 -111 -26 -19 -87 -54 -135 -79 -48 -24 -115 -59 -148 -78
-33 -18 -81 -41 -106 -51 -54 -20 -129 -97 -129 -131 0 -18 -8 -25 -40 -35
-22 -6 -47 -23 -56 -36 -15 -23 -15 -28 6 -69 25 -53 49 -74 191 -178 58 -43
126 -96 150 -118 116 -109 666 -560 939 -771 255 -198 898 -765 1077 -950 l42
-44 -1532 0 c-1590 0 -5446 -14 -5533 -20 -27 -2 -638 -6 -1359 -9 -720 -4
-1409 -8 -1530 -11 -379 -8 -2040 -17 -2034 -11 3 3 102 64 220 134 118 71
342 213 499 317 436 288 711 469 750 492 48 29 230 132 315 178 143 78 183
100 328 182 82 46 228 124 325 172 153 77 194 103 301 191 69 56 160 127 203
157 43 30 78 58 78 63 0 13 -163 211 -339 413 -86 98 -170 194 -187 214 -24
28 -37 35 -54 30 -12 -3 -20 -3 -17 -1 6 6 -45 59 -54 57 -4 -1 -5 6 -2 17 3
11 10 17 16 13 6 -3 7 -1 3 5 -4 6 -14 8 -23 5 -9 -4 -14 -2 -11 3 9 15 -10
54 -27 54 -8 0 -15 4 -15 9 0 6 -9 8 -21 6 -16 -3 -19 0 -15 12 8 19 -12 45
-27 36 -6 -4 -3 -9 9 -14 17 -7 17 -8 2 -8 -11 -1 -18 -9 -18 -21 0 -11 -5
-20 -11 -20 -11 0 -249 -138 -634 -366 -110 -66 -231 -132 -270 -148 -91 -38
-356 -171 -469 -237 -194 -111 -448 -286 -656 -450 -19 -15 -224 -144 -455
-286 -451 -278 -747 -464 -1135 -713 -225 -145 -252 -160 -330 -179 -155 -39
-218 -84 -249 -181 -9 -27 -31 -48 -98 -95 -47 -33 -91 -64 -97 -70 -6 -5 -28
-11 -49 -12 -52 -3 -91 -24 -95 -50 -2 -11 8 -43 23 -70 l25 -50 5 -3394 c4
-3482 12 -5491 21 -5521 3 -10 0 -18 -7 -18 -8 0 -8 -4 -1 -13 7 -8 11 -252
11 -765 0 -414 3 -757 6 -762 3 -5 1 -11 -4 -15 -7 -3 -7 -15 -1 -30 6 -16 5
-25 -3 -29 -9 -3 -9 -5 0 -5 8 -1 11 -181 12 -714 1 -391 4 -757 6 -812 2 -55
7 -676 10 -1380 3 -704 8 -1455 11 -1669 5 -410 9 -437 52 -451 24 -7 54 4 46
17 -4 6 2 8 15 3 29 -9 73 -15 146 -19 115 -8 451 -19 555 -18 63 0 111 -5
119 -12 11 -8 13 -8 8 1 -10 15 52 15 72 -1 11 -8 13 -8 7 2 -5 8 1 12 21 12
21 0 24 -3 13 -10 -12 -7 -10 -9 7 -7 12 0 19 5 17 9 -8 13 21 9 35 -5 11 -9
13 -9 7 1 -5 8 3 12 28 12 19 0 37 -6 39 -12 4 -10 6 -10 6 0 1 6 5 12 11 12
5 0 7 -8 3 -18 -5 -14 -3 -13 10 3 9 11 17 16 17 10 0 -6 52 -9 140 -8 107 1
139 -1 134 -10 -5 -8 -3 -8 7 1 7 6 19 12 27 12 8 0 10 -5 6 -12 -6 -10 -5
-10 7 -1 18 15 141 14 132 -1 -4 -5 -1 -6 8 0 24 15 62 17 53 2 -5 -10 -4 -11
7 0 7 6 20 12 28 12 13 -1 12 -4 -3 -15 -11 -8 -15 -15 -9 -15 6 0 16 6 22 14
15 18 199 20 220 3 12 -9 13 -9 7 1 -4 8 -1 12 9 12 12 0 15 -5 11 -17 -6 -16
-6 -16 12 0 23 21 52 22 52 3 0 -8 4 -17 9 -20 5 -4 7 3 4 14 -4 15 0 20 13
21 37 2 69 -3 82 -13 9 -8 11 -7 7 3 -4 10 4 14 25 15 19 1 27 -3 23 -10 -5
-7 -2 -7 8 1 19 15 209 15 228 0 11 -9 13 -9 8 0 -6 9 133 12 600 12 335 1
626 3 647 6 23 2 46 -1 55 -8 10 -8 13 -8 8 0 -5 8 111 11 466 12 259 0 522 2
582 6 61 3 529 8 1040 11 512 3 1109 8 1328 11 326 4 400 3 414 -8 10 -9 14
-9 10 -2 -6 9 11 12 65 12 40 -1 181 2 313 5 275 7 1043 14 2315 22 487 3 891
7 898 9 6 3 12 -1 12 -7 0 -7 4 -7 13 0 19 16 1009 15 1019 -1 6 -9 8 -9 8 1
0 7 13 12 31 12 21 0 28 -4 23 -12 -6 -10 -4 -10 7 -1 17 17 131 17 148 1 11
-11 13 -10 7 0 -5 8 0 12 16 12 18 0 20 -2 8 -10 -8 -5 -10 -10 -4 -10 5 0 14
4 20 10 12 12 154 21 154 9 0 -4 -8 -6 -17 -3 -14 5 -15 4 -4 -4 11 -8 11 -10
0 -15 -9 -3 -10 -6 -2 -6 6 -1 19 9 28 21 13 19 17 20 24 9 11 -17 41 -24 41
-9 0 6 -7 8 -15 4 -8 -3 -15 -1 -15 5 0 15 93 6 108 -11 10 -13 11 -13 6 3 -4
12 -1 17 11 17 10 0 13 -4 9 -12 -5 -9 -2 -9 9 1 14 11 17 11 17 0 0 -9 3 -10
8 -3 4 6 24 11 45 11 31 0 37 -3 33 -16 -6 -15 -5 -15 7 0 11 15 85 16 767 17
415 0 805 1 865 1 61 1 127 0 148 -2 21 -1 41 1 43 5 3 4 15 3 27 -1 29 -11
40 -11 52 -1 6 5 17 5 25 0 8 -5 21 -5 32 1 12 6 18 6 18 0 0 -7 9 -7 25 -1
15 6 26 6 30 -1 4 -5 12 -6 18 -2 15 9 128 10 149 1 10 -5 18 -3 21 5 3 6 6 3
6 -7 1 -20 1 -20 16 0 14 19 14 19 15 -1 1 -19 1 -19 11 -2 8 14 14 16 25 6
11 -9 14 -8 14 2 0 11 2 11 9 0 7 -11 13 -12 23 -3 11 9 17 9 26 0 9 -9 12 -9
12 2 0 20 13 3 17 -22 3 -17 1 -19 -11 -8 -9 6 -20 9 -26 5 -5 -3 -10 -1 -10
6 0 7 -3 9 -6 6 -4 -4 -2 -13 5 -21 12 -14 74 -16 88 -3 10 10 25 8 19 -2 -4
-5 2 -8 11 -6 10 1 17 9 15 17 -1 10 7 14 28 14 18 0 29 -4 27 -11 -3 -7 11
-11 39 -11 41 0 48 5 45 31 0 7 34 11 89 11 50 1 90 -2 90 -6 0 -4 -15 -7 -33
-6 -20 2 -34 -2 -34 -9 0 -12 45 -14 64 -2 6 4 19 4 30 1 17 -6 17 -6 0 7 -16
13 -13 15 34 17 62 2 77 14 107 91 31 75 29 119 -4 131 l-25 10 6 107 c12 225
25 674 30 1118 4 253 8 483 10 510 3 28 7 959 10 2070 3 1111 7 2272 10 2580
3 308 6 2115 7 4015 3 3429 10 4938 23 5036 7 51 6 52 -26 68 -17 9 -42 16
-54 16 -25 0 -54 30 -120 125 -77 111 -264 289 -620 590 -347 294 -567 485
-1005 875 -146 129 -348 307 -450 395 -102 87 -264 238 -360 335 -188 189
-332 305 -452 364 -71 35 -148 51 -193 40z m-8237 -280 c-7 -6 -40 -18 -73
-27 -57 -15 -59 -15 -36 1 14 9 41 29 60 43 32 24 37 25 49 11 10 -13 10 -18
0 -28z m140 34 c-2 -6 -10 -14 -16 -16 -7 -2 -10 2 -6 12 7 18 28 22 22 4z
m9392 -884 c0 -2 -9 0 -20 6 -11 6 -20 13 -20 16 0 2 9 0 20 -6 11 -6 20 -13
20 -16z m-13815 -1651 c6 -21 3 -23 -38 -23 -25 0 -60 -2 -78 -5 -29 -5 -23 0
31 29 68 36 73 36 85 -1z m15209 -15705 c-3 -4 0 -8 5 -8 6 0 11 4 11 8 0 4
11 8 25 8 23 0 25 -11 2 -11 -7 0 -11 -8 -11 -18 2 -14 -1 -15 -12 -6 -10 9
-17 9 -28 0 -10 -9 -16 -8 -26 4 -9 11 -9 15 -1 15 7 0 10 4 7 8 -2 4 4 8 14
8 10 0 16 -4 14 -8z m116 2 c0 13 1 13 10 0 13 -21 12 -30 -2 -27 -15 2 -28
18 -28 32 0 6 5 3 10 -5 9 -13 10 -13 10 0z m40 0 c0 13 1 13 10 0 6 -9 5 -17
-3 -22 -11 -7 -27 8 -27 27 0 6 5 3 10 -5 9 -13 10 -13 10 0z"/>
<path d="M7060 20060 c6 -11 13 -20 16 -20 2 0 0 9 -6 20 -6 11 -13 20 -16 20
-2 0 0 -9 6 -20z"/>
<path d="M6855 19906 c10 -14 19 -26 22 -26 7 0 -17 39 -28 46 -6 3 -3 -5 6
-20z"/>
<path d="M17915 1592 c3 -3 1 -10 -5 -16 -6 -8 -1 -12 20 -11 15 0 26 4 23 9
-3 4 5 5 17 1 17 -5 21 -4 17 6 -5 15 -10 15 -41 3 -12 -5 -17 -4 -13 3 3 5 0
10 -8 10 -8 0 -13 -3 -10 -5z"/>
<path d="M14874 1579 c-4 -7 -3 -9 4 -5 5 3 13 0 15 -6 4 -9 6 -10 6 -1 1 17
-16 25 -25 12z"/>
<path d="M15236 1578 c5 -7 2 -9 -9 -5 -11 4 -14 2 -10 -9 4 -11 9 -12 19 -3
12 10 11 29 -2 29 -3 0 -2 -5 2 -12z"/>
<path d="M15313 1575 c0 -8 4 -12 9 -9 4 3 8 9 8 15 0 5 -4 9 -8 9 -5 0 -9 -7
-9 -15z"/>
<path d="M15570 1581 c0 -6 4 -13 10 -16 6 -3 7 1 4 9 -7 18 -14 21 -14 7z"/>
<path d="M15590 1586 c0 -2 9 -6 20 -9 11 -3 18 -1 14 4 -5 9 -34 13 -34 5z"/>
<path d="M17580 1580 c0 -5 5 -10 11 -10 5 0 7 5 4 10 -3 6 -8 10 -11 10 -2 0
-4 -4 -4 -10z"/>
<path d="M14700 1566 c7 -7 13 -7 20 0 6 6 3 10 -10 10 -13 0 -16 -4 -10 -10z"/>
<path d="M14918 1573 c7 -3 16 -2 19 1 4 3 -2 6 -13 5 -11 0 -14 -3 -6 -6z"/>
<path d="M15056 1563 c-6 -14 -5 -15 5 -6 7 7 10 15 7 18 -3 3 -9 -2 -12 -12z"/>
<path d="M15857 1567 c-3 -8 -2 -20 3 -26 5 -9 8 -4 8 13 0 29 -3 32 -11 13z"/>
<path d="M13745 1559 c-3 -4 2 -6 10 -5 21 3 28 13 10 13 -9 0 -18 -4 -20 -8z"/>
<path d="M13795 1559 c-3 -4 2 -6 10 -5 21 3 28 13 10 13 -9 0 -18 -4 -20 -8z"/>
<path d="M13906 1558 c3 -5 10 -6 15 -3 13 9 11 12 -6 12 -8 0 -12 -4 -9 -9z"/>
<path d="M13946 1558 c3 -5 10 -6 15 -3 13 9 11 12 -6 12 -8 0 -12 -4 -9 -9z"/>
<path d="M14838 1563 c7 -3 16 -2 19 1 4 3 -2 6 -13 5 -11 0 -14 -3 -6 -6z"/>
<path d="M15100 1566 c0 -2 7 -7 16 -10 8 -3 12 -2 9 4 -6 10 -25 14 -25 6z"/>
<path d="M17480 1565 c0 -2 6 -8 13 -14 10 -8 14 -7 14 2 0 8 -6 14 -14 14 -7
0 -13 -1 -13 -2z"/>
<path d="M15576 1542 c-3 -5 1 -9 9 -9 8 0 12 4 9 9 -3 4 -7 8 -9 8 -2 0 -6
-4 -9 -8z"/>
<path d="M15956 1541 c-3 -5 1 -14 8 -20 10 -9 16 -9 21 -1 4 6 1 9 -7 8 -7
-2 -12 3 -10 10 2 14 -4 16 -12 3z"/>
<path d="M7855 1511 c-3 -5 -2 -12 3 -15 5 -3 9 1 9 9 0 17 -3 19 -12 6z"/>
<path d="M7793 1495 c0 -8 4 -12 9 -9 5 3 6 10 3 15 -9 13 -12 11 -12 -6z"/>
<path d="M7935 1500 c-3 -5 -1 -10 4 -10 6 0 11 5 11 10 0 6 -2 10 -4 10 -3 0
-8 -4 -11 -10z"/>
<path d="M8486 1498 c3 -5 10 -6 15 -3 13 9 11 12 -6 12 -8 0 -12 -4 -9 -9z"/>
<path d="M4598 1493 c7 -3 16 -2 19 1 4 3 -2 6 -13 5 -11 0 -14 -3 -6 -6z"/>
<path d="M4668 1493 c6 -2 10 -8 7 -13 -3 -5 3 -7 12 -6 9 2 19 9 21 17 3 12
2 12 -6 0 -7 -9 -12 -10 -16 -2 -4 6 -13 11 -19 10 -9 0 -8 -2 1 -6z"/>
<path d="M4800 1486 c7 -7 13 -7 20 0 6 6 3 10 -10 10 -13 0 -16 -4 -10 -10z"/>
<path d="M4090 1486 c0 -2 7 -7 16 -10 8 -3 12 -2 9 4 -6 10 -25 14 -25 6z"/>
<path d="M4210 1479 c0 -5 5 -7 10 -4 6 3 10 8 10 11 0 2 -4 4 -10 4 -5 0 -10
-5 -10 -11z"/>
<path d="M4398 1483 c7 -3 16 -2 19 1 4 3 -2 6 -13 5 -11 0 -14 -3 -6 -6z"/>
<path d="M4450 1481 c0 -6 4 -13 10 -16 6 -3 7 1 4 9 -7 18 -14 21 -14 7z"/>
<path d="M4500 1486 c0 -2 8 -10 18 -17 15 -13 16 -12 3 4 -13 16 -21 21 -21
13z"/>
<path d="M4550 1480 c0 -5 5 -10 10 -10 6 0 10 5 10 10 0 6 -4 10 -10 10 -5 0
-10 -4 -10 -10z"/>
<path d="M4841 1476 c-9 -11 -9 -16 1 -22 7 -4 10 -4 6 1 -4 4 -3 14 3 22 6 7
9 13 6 13 -2 0 -10 -6 -16 -14z"/>
<path d="M5036 1473 c-6 -14 -5 -15 5 -6 7 7 10 15 7 18 -3 3 -9 -2 -12 -12z"/>
<path d="M8013 1471 c0 -11 5 -18 9 -15 4 3 5 11 1 19 -7 21 -12 19 -10 -4z"/>
<path d="M8095 1480 c-3 -5 -1 -10 4 -10 6 0 11 5 11 10 0 6 -2 10 -4 10 -3 0
-8 -4 -11 -10z"/>
<path d="M8445 1480 c-3 -6 1 -7 9 -4 18 7 21 14 7 14 -6 0 -13 -4 -16 -10z"/>
<path d="M4784 1462 c4 -3 14 -7 22 -8 9 -1 13 0 10 4 -4 3 -14 7 -22 8 -9 1
-13 0 -10 -4z"/>
<path d="M5570 1460 c0 -5 5 -10 11 -10 5 0 7 5 4 10 -3 6 -8 10 -11 10 -2 0
-4 -4 -4 -10z"/>
<path d="M7835 1440 c-3 -5 -1 -10 4 -10 6 0 11 5 11 10 0 6 -2 10 -4 10 -3 0
-8 -4 -11 -10z"/>
<path d="M8196 1442 c-3 -5 1 -9 9 -9 8 0 12 4 9 9 -3 4 -7 8 -9 8 -2 0 -6 -4
-9 -8z"/>
<path d="M10136 1433 c-6 -14 -5 -15 5 -6 7 7 10 15 7 18 -3 3 -9 -2 -12 -12z"/>
<path d="M8133 1415 c0 -8 4 -12 9 -9 5 3 6 10 3 15 -9 13 -12 11 -12 -6z"/>
<path d="M10070 1400 c0 -5 5 -10 11 -10 5 0 7 5 4 10 -3 6 -8 10 -11 10 -2 0
-4 -4 -4 -10z"/>
</g>
</svg>
